# xmcd CD database file
#
# Track frame offsets:
#	150
#	17290
#	34012
#	50210
#	61285
#	79347
#	97525
#	114237
#	131687
#	144902
#	163327
#	178582
#
# Disc length: 2601 seconds
#
# Revision: 0
# Processed by: cddbd v1.4PL0 Copyright (c) Steve Scherf et al.
# Submitted via: CDex 1.40Release
#
DISCID=940a270c
DTITLE=Stephanie Urbina Jones - Stephanie Urbina Jones
DYEAR=2002
DGENRE=Country
TTITLE0=Shakin things up
TTITLE1=He reminds me of Texas
TTITLE2=Over the borderline
TTITLE3=La Reina de los Angeles
TTITLE4=Down to Mexico
TTITLE5=Train of thought
TTITLE6=Old friend
TTITLE7=Ayayay...
TTITLE8=Left of center
TTITLE9=I am home
TTITLE10=God loves it when we dance
TTITLE11=Adios mi amigo
EXTD=YEAR: 2002 ID3G: 2
EXTT0=
EXTT1=
EXTT2=
EXTT3=
EXTT4=
EXTT5=
EXTT6=
EXTT7=
EXTT8=
EXTT9=
EXTT10=
EXTT11=
PLAYORDER=
